# xmcd
#
# Track frame offsets:
# 150
# 17540
# 32989
# 50902
# 67352
# 83857
# 101214
# 118459
# 135256
# 152490
# 174147
# 191406
# 209504
# 226738
# 244636
# 265271
# 283590
# 301063
# 318255
#
# Disc length: 4496 seconds
#
#
# Revision: 0
# Processed by: cddbd v1.5.2PL0 Copyright (c) Steve Scherf et al.
# Submitted via: FreeRIP 2.96 
#
DISCID=08118e13
DTITLE=Jamiroquai - High Times (Singles 92-06)
DYEAR=1900
DGENRE=Jazz+Funk
TTITLE0=When You Gonna Learn
TTITLE1=Too Young To Die
TTITLE2=Blow Your Mind
TTITLE3=Emergency On Planet Earth
TTITLE4=Space Cowboy
TTITLE5=Virtual Insanity
TTITLE6=Cosmic Girl
TTITLE7=Alright
TTITLE8=High Times
TTITLE9=Deeper Underground
TTITLE10=Canned Heat
TTITLE11=Little L
TTITLE12=Love Foolosophy
TTITLE13=Corner Of The Earth
TTITLE14=Feels Just Like It Should
TTITLE15=Seven Days In Sunny June
TTITLE16=(Don't) Give Hate a Chance
TTITLE17=Runaway
TTITLE18=Radio
EXTD=2007
EXTT0=
EXTT1=
EXTT2=
EXTT3=
EXTT4=
EXTT5=
EXTT6=
EXTT7=
EXTT8=
EXTT9=
EXTT10=
EXTT11=
EXTT12=
EXTT13=
EXTT14=
EXTT15=
EXTT16=
EXTT17=
EXTT18=
PLAYORDER=
